<svg width="235" height="32" viewBox="0 0 235 32" fill="none" xmlns="http://www.w3.org/2000/svg">
<path d="M7.66075 24V4.832H0.10875V2.656H17.4848V4.832H9.96475V24H7.66075ZM24.0895 24.48C22.5748 24.48 21.2628 24.1707 20.1535 23.552C19.0442 22.912 18.1908 21.9627 17.5935 20.704C16.9962 19.4453 16.6975 17.8773 16.6975 16C16.6975 13.248 17.3162 11.1893 18.5535 9.824C19.8122 8.43733 21.5295 7.744 23.7055 7.744C25.4122 7.744 26.7775 8.128 27.8015 8.896C28.8468 9.664 29.5935 10.6987 30.0415 12C30.4895 13.3013 30.7028 14.7733 30.6815 16.416H17.8495L18.0095 14.304H29.1775L28.2815 14.624C28.2175 13.024 27.8122 11.8293 27.0655 11.04C26.3402 10.2507 25.2202 9.856 23.7055 9.856C22.6602 9.856 21.7855 10.048 21.0815 10.432C20.3988 10.816 19.8868 11.488 19.5455 12.448C19.2042 13.3867 19.0335 14.7093 19.0335 16.416C19.0335 18.3573 19.4815 19.84 20.3775 20.864C21.2948 21.8667 22.5748 22.368 24.2175 22.368C25.0068 22.368 25.7322 22.3147 26.3935 22.208C27.0548 22.08 27.6628 21.9093 28.2175 21.696C28.7722 21.4827 29.2628 21.248 29.6895 20.992V23.36C28.9215 23.7227 28.0682 24 27.1295 24.192C26.2122 24.384 25.1988 24.48 24.0895 24.48ZM41.6855 24.256C40.8322 24.256 39.9575 24.1493 39.0615 23.936C38.1868 23.7013 37.3762 23.296 36.6295 22.72C35.9042 22.1227 35.3175 21.28 34.8695 20.192C34.4215 19.104 34.1975 17.7067 34.1975 16C34.1975 14.2933 34.4215 12.9067 34.8695 11.84C35.3175 10.752 35.9042 9.90933 36.6295 9.312C37.3762 8.71467 38.1868 8.30933 39.0615 8.096C39.9575 7.86133 40.8322 7.744 41.6855 7.744C42.4962 7.744 43.2962 7.81867 44.0855 7.968C44.8962 8.11733 45.6748 8.34133 46.4215 8.64V10.848C45.7175 10.5493 44.9922 10.3253 44.2455 10.176C43.4988 10.0267 42.7308 9.952 41.9415 9.952C40.0428 9.952 38.6562 10.432 37.7815 11.392C36.9282 12.352 36.5015 13.888 36.5015 16C36.5015 18.1333 36.9282 19.68 37.7815 20.64C38.6562 21.5787 40.0428 22.048 41.9415 22.048C42.7308 22.048 43.4988 21.9733 44.2455 21.824C44.9922 21.6747 45.7175 21.4507 46.4215 21.152V23.392C45.6748 23.6693 44.8962 23.8827 44.0855 24.032C43.2962 24.1813 42.4962 24.256 41.6855 24.256ZM50.7475 24V0.959999H53.0515V9.824L52.7955 9.216C53.6062 8.768 54.4595 8.416 55.3555 8.16C56.2515 7.88267 57.0942 7.744 57.8835 7.744C59.2062 7.744 60.3155 7.98933 61.2115 8.48C62.1288 8.97067 62.8222 9.71733 63.2915 10.72C63.7822 11.7013 64.0275 12.9707 64.0275 14.528V24H61.7235V14.528C61.7235 13.0347 61.3822 11.8827 60.6995 11.072C60.0168 10.2613 58.9928 9.856 57.6275 9.856C56.8808 9.856 56.1235 9.96267 55.3555 10.176C54.6088 10.3893 53.8408 10.7093 53.0515 11.136V24H50.7475ZM73.8258 17.6L72.0658 14.304L80.5778 2.656H87.1058L73.8258 17.6ZM68.8658 24V2.656H74.0498V24H68.8658ZM78.4658 10.784L87.7778 24H81.2818L74.4658 14.112L78.4658 10.784ZM90.4557 9.184C90.8611 8.97067 91.3944 8.75733 92.0558 8.544C92.7171 8.30933 93.4424 8.10667 94.2318 7.936C95.0211 7.76533 95.8104 7.62667 96.5998 7.52C97.4104 7.41333 98.1571 7.36 98.8398 7.36C100.29 7.36 101.528 7.552 102.552 7.936C103.576 8.29867 104.354 8.896 104.888 9.728C105.442 10.56 105.72 11.6907 105.72 13.12V24H100.952V14.08C100.952 13.6747 100.888 13.3013 100.76 12.96C100.653 12.6187 100.482 12.3307 100.248 12.096C100.013 11.84 99.6931 11.648 99.2878 11.52C98.8824 11.3707 98.3918 11.296 97.8158 11.296C97.3251 11.296 96.8344 11.36 96.3438 11.488C95.8531 11.5947 95.4798 11.712 95.2238 11.84V24H90.4557V9.184ZM117.252 24.48C114.521 24.48 112.462 23.7547 111.076 22.304C109.71 20.832 109.028 18.6773 109.028 15.84C109.028 12.7893 109.721 10.6027 111.108 9.28C112.516 7.936 114.564 7.264 117.252 7.264C119.065 7.264 120.58 7.57333 121.796 8.192C123.033 8.78933 123.961 9.71733 124.58 10.976C125.22 12.2347 125.54 13.856 125.54 15.84C125.54 18.6773 124.825 20.832 123.396 22.304C121.966 23.7547 119.918 24.48 117.252 24.48ZM117.252 20.672C118.041 20.672 118.692 20.4907 119.204 20.128C119.737 19.744 120.132 19.2 120.388 18.496C120.665 17.7707 120.804 16.8853 120.804 15.84C120.804 14.6453 120.665 13.7067 120.388 13.024C120.132 12.32 119.737 11.8187 119.204 11.52C118.67 11.2 118.02 11.04 117.252 11.04C116.441 11.04 115.78 11.2 115.268 11.52C114.756 11.84 114.372 12.352 114.116 13.056C113.881 13.7387 113.764 14.6667 113.764 15.84C113.764 17.4613 114.041 18.6773 114.596 19.488C115.172 20.2773 116.057 20.672 117.252 20.672ZM131.896 24L126.456 7.808H131.608L135.224 20.896L133.72 20.96L137.144 7.808H140.664L144.024 20.576H142.84L146.296 7.808H151.352L145.976 24H141.656L138.456 13.536L139.256 13.632L136.216 24H131.896ZM159.004 24H154.268V1.696H159.004V24ZM170.565 24.48C168.944 24.48 167.504 24.1493 166.245 23.488C165.008 22.8053 164.037 21.8453 163.333 20.608C162.65 19.3493 162.309 17.856 162.309 16.128C162.309 13.312 163.002 11.136 164.389 9.6C165.797 8.04267 167.802 7.264 170.405 7.264C172.197 7.264 173.637 7.648 174.725 8.416C175.834 9.184 176.645 10.304 177.157 11.776C177.669 13.248 177.914 15.04 177.893 17.152H165.573L165.061 14.112H173.957L173.253 15.616C173.232 13.888 172.986 12.672 172.517 11.968C172.048 11.264 171.28 10.912 170.213 10.912C169.616 10.912 169.072 11.0613 168.581 11.36C168.112 11.6587 167.738 12.16 167.461 12.864C167.205 13.5467 167.077 14.496 167.077 15.712C167.077 17.248 167.44 18.432 168.165 19.264C168.912 20.096 170.096 20.512 171.717 20.512C172.314 20.512 172.901 20.448 173.477 20.32C174.074 20.1707 174.629 20 175.141 19.808C175.653 19.616 176.09 19.4453 176.453 19.296V23.392C175.685 23.712 174.821 23.968 173.861 24.16C172.922 24.3733 171.824 24.48 170.565 24.48ZM188.95 24.48C187.691 24.48 186.528 24.3413 185.462 24.064C184.416 23.7867 183.51 23.328 182.742 22.688C181.974 22.0267 181.366 21.1307 180.918 20C180.491 18.8693 180.278 17.4613 180.278 15.776C180.278 13.152 180.918 11.0827 182.198 9.568C183.499 8.05333 185.44 7.296 188.022 7.296C188.363 7.296 188.811 7.328 189.366 7.392C189.92 7.43467 190.496 7.56267 191.094 7.776C191.691 7.98933 192.224 8.352 192.694 8.864L191.734 10.336V1.152H196.47V19.776C196.47 20.5653 196.256 21.2587 195.83 21.856C195.403 22.432 194.827 22.912 194.102 23.296C193.398 23.68 192.598 23.968 191.702 24.16C190.806 24.3733 189.888 24.48 188.95 24.48ZM189.142 20.48C189.91 20.48 190.528 20.384 190.998 20.192C191.488 19.9787 191.734 19.6693 191.734 19.264V11.808C191.35 11.5947 190.934 11.4347 190.486 11.328C190.059 11.2 189.643 11.136 189.238 11.136C188.342 11.136 187.584 11.2853 186.966 11.584C186.347 11.8827 185.878 12.384 185.558 13.088C185.259 13.792 185.11 14.7413 185.11 15.936C185.11 16.8747 185.238 17.6853 185.494 18.368C185.75 19.0293 186.166 19.552 186.742 19.936C187.339 20.2987 188.139 20.48 189.142 20.48ZM206.914 24.48C205.442 24.3947 204.172 24.0533 203.106 23.456C202.06 22.8587 201.239 21.984 200.642 20.832C200.066 19.6587 199.778 18.1867 199.778 16.416C199.778 14.624 200.002 13.1413 200.45 11.968C200.898 10.7733 201.516 9.84533 202.306 9.184C203.116 8.52267 204.087 8.05333 205.218 7.776C206.348 7.49867 207.607 7.36 208.994 7.36C210.338 7.36 211.511 7.53067 212.514 7.872C213.516 8.21333 214.295 8.704 214.85 9.344C215.404 9.984 215.682 10.7733 215.682 11.712V24.192C215.682 25.3227 215.5 26.3147 215.138 27.168C214.775 28.0427 214.231 28.768 213.506 29.344C212.802 29.9413 211.938 30.3893 210.914 30.688C209.911 30.9867 208.748 31.136 207.426 31.136C205.996 31.136 204.77 31.0293 203.746 30.816C202.743 30.624 201.975 30.3787 201.442 30.08V25.888C201.762 26.016 202.231 26.1867 202.85 26.4C203.468 26.6133 204.162 26.784 204.93 26.912C205.698 27.0613 206.466 27.136 207.234 27.136C208.236 27.136 209.004 26.9973 209.538 26.72C210.092 26.4427 210.476 26.0693 210.69 25.6C210.903 25.1307 211.01 24.5973 211.01 24V21.376L211.938 22.048C211.596 22.5387 211.191 22.9653 210.722 23.328C210.252 23.6907 209.698 23.968 209.058 24.16C208.439 24.3733 207.724 24.48 206.914 24.48ZM208.13 20.896C208.684 20.896 209.196 20.8427 209.666 20.736C210.135 20.608 210.583 20.4267 211.01 20.192V12.768C211.01 12.32 210.882 11.9787 210.626 11.744C210.37 11.5093 210.05 11.3493 209.666 11.264C209.282 11.1787 208.876 11.136 208.45 11.136C207.468 11.136 206.69 11.3493 206.114 11.776C205.559 12.2027 205.154 12.8 204.898 13.568C204.663 14.3147 204.546 15.168 204.546 16.128C204.546 17.6 204.876 18.7627 205.538 19.616C206.199 20.4693 207.063 20.896 208.13 20.896ZM227.003 24.48C225.381 24.48 223.941 24.1493 222.683 23.488C221.445 22.8053 220.475 21.8453 219.771 20.608C219.088 19.3493 218.747 17.856 218.747 16.128C218.747 13.312 219.44 11.136 220.827 9.6C222.235 8.04267 224.24 7.264 226.843 7.264C228.635 7.264 230.075 7.648 231.163 8.416C232.272 9.184 233.083 10.304 233.595 11.776C234.107 13.248 234.352 15.04 234.331 17.152H222.011L221.499 14.112H230.395L229.691 15.616C229.669 13.888 229.424 12.672 228.955 11.968C228.485 11.264 227.717 10.912 226.651 10.912C226.053 10.912 225.509 11.0613 225.019 11.36C224.549 11.6587 224.176 12.16 223.899 12.864C223.643 13.5467 223.515 14.496 223.515 15.712C223.515 17.248 223.877 18.432 224.603 19.264C225.349 20.096 226.533 20.512 228.155 20.512C228.752 20.512 229.339 20.448 229.915 20.32C230.512 20.1707 231.067 20 231.579 19.808C232.091 19.616 232.528 19.4453 232.891 19.296V23.392C232.123 23.712 231.259 23.968 230.299 24.16C229.36 24.3733 228.261 24.48 227.003 24.48Z" fill="white"/>
</svg>
